<svg width="121" height="165" viewBox="0 0 121 165" fill="none" xmlns="http://www.w3.org/2000/svg">
<g filter="url(#filter0_d_185_1170)">
<path d="M31.0391 47.5C18.2391 45.5 8.70573 51.3334 5.53906 54.5C7.8724 46.5 16.2391 30.9 31.0391 32.5C49.5391 34.5 50.0391 47.5 47.5391 49C45.5391 50.2 35.7057 48.5 31.0391 47.5Z" fill="#00A451"/>
<path d="M31.0391 47.5C18.2391 45.5 8.70573 51.3334 5.53906 54.5C7.8724 46.5 16.2391 30.9 31.0391 32.5C49.5391 34.5 50.0391 47.5 47.5391 49C45.5391 50.2 35.7057 48.5 31.0391 47.5Z" stroke="#00A451" stroke-width="1.5" stroke-linecap="round" stroke-linejoin="round"/>
</g>
<g filter="url(#filter1_d_185_1170)">
<path d="M93.5391 94.5C93.5391 94.5 76.8724 83.1667 73.5391 82C76.5391 75 93.5391 72.5 99.5391 82C104.339 89.6 111.539 91.1667 114.539 91C104.939 98.2 93.5391 94.5 93.5391 94.5Z" fill="#00A451"/>
<path d="M93.5391 94.5C93.5391 94.5 76.8724 83.1667 73.5391 82C76.5391 75 93.5391 72.5 99.5391 82C104.339 89.6 111.539 91.1667 114.539 91C104.939 98.2 93.5391 94.5 93.5391 94.5Z" stroke="#00A451" stroke-width="1.5" stroke-linecap="round"/>
</g>
<path d="M63.0391 19.5C65.7057 26.5 70.5391 45.8 68.5391 67" stroke="#065120" stroke-width="2" stroke-linecap="round"/>
<path d="M19.0391 42.6453C29.5391 32.2537 52.0391 28.9763 58.0391 99" stroke="#065120" stroke-width="2" stroke-linecap="round"/>
<path d="M90.0391 87.1032C82.716 79.5235 65.6637 72.8912 56.0391 107" stroke="#065120" stroke-width="2" stroke-linecap="round"/>
<path d="M23.5391 160.241C31.7057 165.074 56.3391 169.041 89.5391 146.241" stroke="black"/>
<g filter="url(#filter2_d_185_1170)">
<path d="M98.0391 45C87.6391 54.6 80.0391 55.3333 77.5391 54.5C73.5391 47.5 85.5391 39 93.5391 37C99.9391 35.4 108.206 40 111.539 42.5C106.339 40.5 100.372 43.3333 98.0391 45Z" fill="#00A451"/>
<path d="M98.0391 45C87.6391 54.6 80.0391 55.3333 77.5391 54.5C73.5391 47.5 85.5391 39 93.5391 37C99.9391 35.4 108.206 40 111.539 42.5C106.339 40.5 100.372 43.3333 98.0391 45Z" stroke="#00A451" stroke-width="1.5" stroke-linecap="round" stroke-linejoin="round"/>
</g>
<g filter="url(#filter3_d_185_1170)">
<path d="M68.5391 12.5C78.5391 26.5 72.7057 35.6667 68.5391 38.5C62.1391 33.3 59.0391 25.5 59.0391 25.5C59.0391 25.5 54.8724 1.16667 54.5391 1C61.3391 5 66.7057 10.3333 68.5391 12.5Z" fill="#00A451"/>
<path d="M68.5391 12.5C78.5391 26.5 72.7057 35.6667 68.5391 38.5C62.1391 33.3 59.0391 25.5 59.0391 25.5C59.0391 25.5 54.8724 1.16667 54.5391 1C61.3391 5 66.7057 10.3333 68.5391 12.5Z" stroke="#00A451" stroke-width="1.5" stroke-linecap="round" stroke-linejoin="round"/>
</g>
<g filter="url(#filter4_d_185_1170)">
<path d="M43.5391 61.0888C37.5391 61.8888 34.0391 66.4222 33.0391 68.5888C41.0391 63.7889 49.7057 65.9222 53.0391 67.5888C52.3724 65.0888 49.5391 60.2888 43.5391 61.0888Z" fill="#00A451"/>
<path d="M43.5391 61.0888C37.5391 61.8888 34.0391 66.4222 33.0391 68.5888C41.0391 63.7889 49.7057 65.9222 53.0391 67.5888C52.3724 65.0888 49.5391 60.2888 43.5391 61.0888Z" stroke="#00A451" stroke-width="1.5" stroke-linecap="round" stroke-linejoin="round"/>
</g>
<path d="M68.0391 40C68.8724 33.6667 68.6391 19 61.0391 11" stroke="#065120" stroke-linecap="square" stroke-linejoin="round"/>
<path d="M54.0391 68.5C52.7057 66 48.4391 61.4 42.0391 63" stroke="#065120" stroke-linecap="square" stroke-linejoin="round"/>
<path d="M59.0388 160C51.8721 132.667 49.2391 70.8 94.0391 40" stroke="#065120" stroke-width="2" stroke-linecap="round"/>
<defs>
<filter id="filter0_d_185_1170" x="0.789062" y="31.6355" width="52.5786" height="31.6145" filterUnits="userSpaceOnUse" color-interpolation-filters="sRGB">
<feFlood flood-opacity="0" result="BackgroundImageFix"/>
<feColorMatrix in="SourceAlpha" type="matrix" values="0 0 0 0 0 0 0 0 0 0 0 0 0 0 0 0 0 0 127 0" result="hardAlpha"/>
<feOffset dy="4"/>
<feGaussianBlur stdDeviation="2"/>
<feComposite in2="hardAlpha" operator="out"/>
<feColorMatrix type="matrix" values="0 0 0 0 0 0 0 0 0 0 0 0 0 0 0 0 0 0 0.25 0"/>
<feBlend mode="normal" in2="BackgroundImageFix" result="effect1_dropShadow_185_1170"/>
<feBlend mode="normal" in="SourceGraphic" in2="effect1_dropShadow_185_1170" result="shape"/>
</filter>
<filter id="filter1_d_185_1170" x="68.5332" y="75.0276" width="52.4375" height="29.1729" filterUnits="userSpaceOnUse" color-interpolation-filters="sRGB">
<feFlood flood-opacity="0" result="BackgroundImageFix"/>
<feColorMatrix in="SourceAlpha" type="matrix" values="0 0 0 0 0 0 0 0 0 0 0 0 0 0 0 0 0 0 127 0" result="hardAlpha"/>
<feOffset dy="4"/>
<feGaussianBlur stdDeviation="2"/>
<feComposite in2="hardAlpha" operator="out"/>
<feColorMatrix type="matrix" values="0 0 0 0 0 0 0 0 0 0 0 0 0 0 0 0 0 0 0.25 0"/>
<feBlend mode="normal" in2="BackgroundImageFix" result="effect1_dropShadow_185_1170"/>
<feBlend mode="normal" in="SourceGraphic" in2="effect1_dropShadow_185_1170" result="shape"/>
</filter>
<filter id="filter2_d_185_1170" x="71.9946" y="35.9197" width="44.2944" height="27.5858" filterUnits="userSpaceOnUse" color-interpolation-filters="sRGB">
<feFlood flood-opacity="0" result="BackgroundImageFix"/>
<feColorMatrix in="SourceAlpha" type="matrix" values="0 0 0 0 0 0 0 0 0 0 0 0 0 0 0 0 0 0 127 0" result="hardAlpha"/>
<feOffset dy="4"/>
<feGaussianBlur stdDeviation="2"/>
<feComposite in2="hardAlpha" operator="out"/>
<feColorMatrix type="matrix" values="0 0 0 0 0 0 0 0 0 0 0 0 0 0 0 0 0 0 0.25 0"/>
<feBlend mode="normal" in2="BackgroundImageFix" result="effect1_dropShadow_185_1170"/>
<feBlend mode="normal" in="SourceGraphic" in2="effect1_dropShadow_185_1170" result="shape"/>
</filter>
<filter id="filter3_d_185_1170" x="49.7891" y="0.249847" width="29.0215" height="47.0002" filterUnits="userSpaceOnUse" color-interpolation-filters="sRGB">
<feFlood flood-opacity="0" result="BackgroundImageFix"/>
<feColorMatrix in="SourceAlpha" type="matrix" values="0 0 0 0 0 0 0 0 0 0 0 0 0 0 0 0 0 0 127 0" result="hardAlpha"/>
<feOffset dy="4"/>
<feGaussianBlur stdDeviation="2"/>
<feComposite in2="hardAlpha" operator="out"/>
<feColorMatrix type="matrix" values="0 0 0 0 0 0 0 0 0 0 0 0 0 0 0 0 0 0 0.25 0"/>
<feBlend mode="normal" in2="BackgroundImageFix" result="effect1_dropShadow_185_1170"/>
<feBlend mode="normal" in="SourceGraphic" in2="effect1_dropShadow_185_1170" result="shape"/>
</filter>
<filter id="filter4_d_185_1170" x="28.2891" y="60.2499" width="29.5" height="17.0889" filterUnits="userSpaceOnUse" color-interpolation-filters="sRGB">
<feFlood flood-opacity="0" result="BackgroundImageFix"/>
<feColorMatrix in="SourceAlpha" type="matrix" values="0 0 0 0 0 0 0 0 0 0 0 0 0 0 0 0 0 0 127 0" result="hardAlpha"/>
<feOffset dy="4"/>
<feGaussianBlur stdDeviation="2"/>
<feComposite in2="hardAlpha" operator="out"/>
<feColorMatrix type="matrix" values="0 0 0 0 0 0 0 0 0 0 0 0 0 0 0 0 0 0 0.25 0"/>
<feBlend mode="normal" in2="BackgroundImageFix" result="effect1_dropShadow_185_1170"/>
<feBlend mode="normal" in="SourceGraphic" in2="effect1_dropShadow_185_1170" result="shape"/>
</filter>
</defs>
</svg>
