<svg width="209" height="252" viewBox="0 0 209 252" fill="none" xmlns="http://www.w3.org/2000/svg">
<path d="M61.4597 200.722C69.4002 205.918 93.8297 210.991 128.024 189.711" stroke="black"/>
<g filter="url(#filter0_d_185_1238)">
<path d="M138.033 78.8087C139.19 75.3574 144.415 70.488 156.06 78.6212C151.27 81.2413 140.959 84.9469 138.033 78.8087Z" fill="#00A451"/>
<path d="M132.494 79.5598L138.033 78.8087M138.033 78.8087C139.19 75.3574 144.415 70.488 156.06 78.6212C151.27 81.2413 140.959 84.9469 138.033 78.8087Z" stroke="#00A451" stroke-linecap="round" stroke-linejoin="round"/>
</g>
<g filter="url(#filter1_d_185_1238)">
<path d="M142.66 65.0032C144.424 66.5844 149.718 68.3248 156.781 62.6374C153.852 61.0037 146.927 59.1897 142.66 65.0032Z" fill="#00A451"/>
<path d="M142.66 65.0032C144.424 66.5844 149.718 68.3248 156.781 62.6374C153.852 61.0037 146.927 59.1897 142.66 65.0032Z" stroke="#00A451" stroke-linecap="round" stroke-linejoin="round"/>
</g>
<g filter="url(#filter2_d_185_1238)">
<path d="M142.908 59.5088C142.982 54.1734 139.189 44.3257 123.425 47.6184C126.703 52.6046 135.19 61.9633 142.908 59.5088Z" fill="#00A451"/>
<path d="M142.908 59.5088C142.982 54.1734 139.189 44.3257 123.425 47.6184C126.703 52.6046 135.19 61.9633 142.908 59.5088Z" stroke="#00A451" stroke-linecap="round" stroke-linejoin="round"/>
</g>
<g filter="url(#filter3_d_185_1238)">
<path d="M144.903 48.5877C133.859 44.886 137.768 29.2464 141.103 21.8892L147.964 36.2131C149.656 43.0963 146.628 47.3308 144.903 48.5877Z" fill="#00A451"/>
<path d="M144.903 48.5877C133.859 44.886 137.768 29.2464 141.103 21.8892L147.964 36.2131C149.656 43.0963 146.628 47.3308 144.903 48.5877Z" stroke="#00A451" stroke-linecap="round" stroke-linejoin="round"/>
</g>
<g filter="url(#filter4_d_185_1238)">
<path d="M101.48 79.1613C102.638 79.3804 105.266 77.3301 106.516 67.3764C104.859 67.1347 101.531 69.1534 101.48 79.1613Z" fill="#00A451"/>
<path d="M101.48 79.1613C102.638 79.3804 105.266 77.3301 106.516 67.3764C104.859 67.1347 101.531 69.1534 101.48 79.1613Z" stroke="#00A451" stroke-linecap="round" stroke-linejoin="round"/>
</g>
<g filter="url(#filter5_d_185_1238)">
<path d="M103.073 88.2423C102.86 85.5634 100.609 80.7236 93.3082 82.7966C95.0495 84.8773 99.4402 88.8793 103.073 88.2423Z" fill="#00A451"/>
<path d="M103.073 88.2423C102.86 85.5634 100.609 80.7236 93.3082 82.7966C95.0495 84.8773 99.4402 88.8793 103.073 88.2423Z" stroke="#00A451" stroke-linecap="round" stroke-linejoin="round"/>
</g>
<g filter="url(#filter6_d_185_1238)">
<path d="M67.8716 58.6253C69.2249 54.5155 74.0933 47.1942 82.7401 50.7876C83.4824 52.8231 81.548 57.2404 67.8716 58.6253Z" fill="#00A451"/>
<path d="M67.8716 58.6253C69.2249 54.5155 74.0933 47.1942 82.7401 50.7876C83.4824 52.8231 81.548 57.2404 67.8716 58.6253Z" stroke="#00A451" stroke-linecap="round" stroke-linejoin="round"/>
</g>
<g filter="url(#filter7_d_185_1238)">
<path d="M52.1324 41.3983C67.4222 30.8769 75.6686 41.1257 77.8805 47.5653C75.5045 48.4591 69.5897 49.3934 64.9388 45.9803C60.288 42.5671 54.4633 41.5035 52.1324 41.3983Z" fill="#00A451"/>
<path d="M52.1324 41.3983C67.4222 30.8769 75.6686 41.1257 77.8805 47.5653C75.5045 48.4591 69.5897 49.3934 64.9388 45.9803C60.288 42.5671 54.4633 41.5035 52.1324 41.3983Z" stroke="#00A451" stroke-linecap="round" stroke-linejoin="round"/>
</g>
<path d="M64.6421 41.4623C80.3015 45.6725 109.644 64.6145 101.739 106.701" stroke="#065120" stroke-linecap="round" stroke-linejoin="round"/>
<g filter="url(#filter8_d_185_1238)">
<path d="M102.517 122.752C101.722 121.882 101.33 117.994 106.122 109.401C107.735 110.642 109.271 115.049 102.517 122.752Z" fill="#00A451"/>
<path d="M102.517 122.752C101.722 121.882 101.33 117.994 106.122 109.401C107.735 110.642 109.271 115.049 102.517 122.752Z" stroke="#00A451" stroke-linecap="round" stroke-linejoin="round"/>
</g>
<path d="M99.8608 126.136C102.343 126.582 108.067 128.408 111.101 132.149" stroke="#010101" stroke-linecap="round" stroke-linejoin="round"/>
<path d="M77.9925 111.635C79.665 111.544 83.9684 112.305 87.802 116.082" stroke="#010101" stroke-linecap="round" stroke-linejoin="round"/>
<g filter="url(#filter9_d_185_1238)">
<path d="M87.8022 116.082C85.8493 114.993 89.3647 103.64 69.0018 111.23C73.5585 113.771 83.6981 118.299 87.8022 116.082Z" fill="#00A451"/>
<path d="M91.0507 121.734C90.6188 120.213 89.3645 116.954 87.8022 116.082M87.8022 116.082C85.8493 114.993 89.3647 103.64 69.0018 111.23C73.5585 113.771 83.6981 118.299 87.8022 116.082Z" stroke="#00A451" stroke-linecap="round" stroke-linejoin="round"/>
</g>
<g filter="url(#filter10_d_185_1238)">
<path d="M125.947 124.811C119.5 125.721 113.421 121.409 111.188 119.14C111.838 115.832 115.816 109.739 126.533 111.824C137.25 113.909 143.625 121.271 145.472 124.691C141.544 123.012 134.007 123.673 125.947 124.811Z" fill="#00A451"/>
<path d="M125.947 124.811C119.5 125.721 113.421 121.409 111.188 119.14C111.838 115.832 115.816 109.739 126.533 111.824C137.25 113.909 143.625 121.271 145.472 124.691C141.544 123.012 134.007 123.673 125.947 124.811Z" stroke="#00A451" stroke-linecap="round" stroke-linejoin="round"/>
</g>
<g filter="url(#filter11_d_185_1238)">
<path d="M105.039 133.377C105.039 133.377 99.6489 127.128 99.883 125.637C112.051 122.182 116.595 132.397 117.346 137.936C110.353 137.621 105.039 133.377 105.039 133.377Z" fill="#00A451"/>
<path d="M105.039 133.377C105.039 133.377 99.6489 127.128 99.883 125.637C112.051 122.182 116.595 132.397 117.346 137.936C110.353 137.621 105.039 133.377 105.039 133.377Z" stroke="#00A451" stroke-linecap="round" stroke-linejoin="round"/>
</g>
<path d="M92.3945 136.31C92.0579 125.283 89.2771 101.134 80.8467 92.7449" stroke="#065120" stroke-linecap="round" stroke-linejoin="round"/>
<g filter="url(#filter12_d_185_1238)">
<path d="M62.8164 81.9211C90.6949 76.3722 91.39 95.7232 88.2527 106.092C85.4222 105.965 78.7616 103.462 74.7628 94.4724C70.7639 85.483 65.1324 82.3593 62.8164 81.9211Z" fill="#00A451"/>
<path d="M62.8164 81.9211C90.6949 76.3722 91.39 95.7232 88.2527 106.092C85.4222 105.965 78.7616 103.462 74.7628 94.4724C70.7639 85.483 65.1324 82.3593 62.8164 81.9211Z" stroke="#00A451" stroke-linecap="round" stroke-linejoin="round"/>
</g>
<path d="M90.3734 203.287C85.7093 173.546 85.5337 108.672 122.143 87.1008C131.67 83.0261 149.281 66.9037 143.513 35.0112" stroke="#065120" stroke-width="2" stroke-linecap="round" stroke-linejoin="round"/>
<path d="M92.3945 136.31C95.4342 128.105 106.749 113.233 127.693 119.384" stroke="#065120" stroke-linecap="round" stroke-linejoin="round"/>
<path d="M89.561 10.5542C92.5917 21.0348 97.9505 46.4689 95.1411 64.3604" stroke="#065120" stroke-linecap="round" stroke-linejoin="round"/>
<g filter="url(#filter13_d_185_1238)">
<path d="M94.5182 33.8013C90.4622 34.953 82.8564 30.4722 84.8818 3.33592C92.0649 6.82995 104.049 17.8147 94.5182 33.8013Z" fill="#00A451"/>
<path d="M94.5182 33.8013C90.4622 34.953 82.8564 30.4722 84.8818 3.33592C92.0649 6.82995 104.049 17.8147 94.5182 33.8013Z" stroke="#00A451" stroke-linecap="round" stroke-linejoin="round"/>
</g>
<g filter="url(#filter14_d_185_1238)">
<path d="M138.427 103.352C135.988 86.4243 125.148 87.0696 120.033 89.5082C120.648 98.0447 126.993 96.1566 132.092 99.562C134.489 101.163 136.648 102.103 138.427 103.352Z" fill="#00A451"/>
<path d="M138.427 103.352C135.988 86.4243 125.148 87.0696 120.033 89.5082C120.648 98.0447 126.993 96.1566 132.092 99.562C134.489 101.163 136.648 102.103 138.427 103.352Z" stroke="#00A451" stroke-linecap="round" stroke-linejoin="round"/>
</g>
<path d="M124.686 86.2146C129.99 83.284 143.737 81.0682 156.293 95.649" stroke="#065120" stroke-linecap="round" stroke-linejoin="round"/>
<g filter="url(#filter15_d_185_1238)">
<path d="M157.566 100.712C147.248 98.6444 144.016 90.4236 143.689 86.5716C152.315 81.7556 160.3 84.485 163.214 86.4517C172.88 94.0952 174.284 103.635 173.778 107.449C169.508 102.252 170.462 103.296 157.566 100.712Z" fill="#00A451"/>
<path d="M157.566 100.712C147.248 98.6444 144.016 90.4236 143.689 86.5716C152.315 81.7556 160.3 84.485 163.214 86.4517C172.88 94.0952 174.284 103.635 173.778 107.449C169.508 102.252 170.462 103.296 157.566 100.712Z" stroke="#00A451" stroke-linecap="round" stroke-linejoin="round"/>
</g>
<path d="M94.95 35.3223C94.2291 29.1168 92.1374 15.5754 89.5386 11.0537" stroke="#065120" stroke-linecap="square" stroke-linejoin="round"/>
<path d="M82.7179 51.2871C80.7124 51.3635 75.9661 52.2838 73.0247 55.3543" stroke="#065120" stroke-linecap="square" stroke-linejoin="round"/>
<path d="M143.43 59.0319C142.181 57.1403 138.206 52.7901 132.303 50.5216" stroke="#065120" stroke-linecap="square" stroke-linejoin="round"/>
<path d="M88.6621 108.113C88.3805 103.262 85.5827 92.0577 76.6445 86.0487" stroke="#065120" stroke-linecap="square" stroke-linejoin="round"/>
<path d="M91.0506 121.734C90.6638 119.214 87.8194 113.48 79.5361 110.704" stroke="#065120" stroke-linecap="square" stroke-linejoin="round"/>
<path d="M99.8838 125.637C101.874 125.893 107.195 127.768 112.555 133.215" stroke="#065120" stroke-linecap="square" stroke-linejoin="round"/>
<path d="M103.061 121.776C104.188 118.99 106.341 113.415 105.942 113.397" stroke="#065120" stroke-linecap="square" stroke-linejoin="round"/>
<path d="M119.556 88.9861C120.737 88.7057 124.247 89.2979 128.844 93.9098" stroke="#065120" stroke-linecap="square" stroke-linejoin="round"/>
<path d="M94.7842 83.3637C96.7972 83.1208 101.278 83.6567 103.095 87.7428" stroke="#065120" stroke-linecap="square" stroke-linejoin="round"/>
<path d="M102.457 79.7058C102.418 76.8679 102.962 70.7195 105.45 68.8297" stroke="#065120" stroke-linecap="square" stroke-linejoin="round"/>
<path d="M132.494 79.5598C133.667 79.4459 136.517 79.1407 138.533 78.8313C141.053 78.4445 149.544 78.8277 150.543 78.8727" stroke="#065120" stroke-linecap="square" stroke-linejoin="round"/>
<path d="M143.212 86.0495C150.19 86.6981 165.137 90.4424 169.099 100.231" stroke="#065120" stroke-linecap="square" stroke-linejoin="round"/>
<path d="M142.139 65.4802C143.168 64.8593 146.829 63.5897 153.24 63.4787" stroke="#065120" stroke-linecap="square" stroke-linejoin="round"/>
<defs>
<filter id="filter0_d_185_1238" x="127.994" y="73.6793" width="32.5664" height="16.9688" filterUnits="userSpaceOnUse" color-interpolation-filters="sRGB">
<feFlood flood-opacity="0" result="BackgroundImageFix"/>
<feColorMatrix in="SourceAlpha" type="matrix" values="0 0 0 0 0 0 0 0 0 0 0 0 0 0 0 0 0 0 127 0" result="hardAlpha"/>
<feOffset dy="4"/>
<feGaussianBlur stdDeviation="2"/>
<feComposite in2="hardAlpha" operator="out"/>
<feColorMatrix type="matrix" values="0 0 0 0 0 0 0 0 0 0 0 0 0 0 0 0 0 0 0.25 0"/>
<feBlend mode="normal" in2="BackgroundImageFix" result="effect1_dropShadow_185_1238"/>
<feBlend mode="normal" in="SourceGraphic" in2="effect1_dropShadow_185_1238" result="shape"/>
</filter>
<filter id="filter1_d_185_1238" x="138.16" y="60.5237" width="23.1211" height="14.5276" filterUnits="userSpaceOnUse" color-interpolation-filters="sRGB">
<feFlood flood-opacity="0" result="BackgroundImageFix"/>
<feColorMatrix in="SourceAlpha" type="matrix" values="0 0 0 0 0 0 0 0 0 0 0 0 0 0 0 0 0 0 127 0" result="hardAlpha"/>
<feOffset dy="4"/>
<feGaussianBlur stdDeviation="2"/>
<feComposite in2="hardAlpha" operator="out"/>
<feColorMatrix type="matrix" values="0 0 0 0 0 0 0 0 0 0 0 0 0 0 0 0 0 0 0.25 0"/>
<feBlend mode="normal" in2="BackgroundImageFix" result="effect1_dropShadow_185_1238"/>
<feBlend mode="normal" in="SourceGraphic" in2="effect1_dropShadow_185_1238" result="shape"/>
</filter>
<filter id="filter2_d_185_1238" x="118.925" y="46.4599" width="28.4849" height="21.9524" filterUnits="userSpaceOnUse" color-interpolation-filters="sRGB">
<feFlood flood-opacity="0" result="BackgroundImageFix"/>
<feColorMatrix in="SourceAlpha" type="matrix" values="0 0 0 0 0 0 0 0 0 0 0 0 0 0 0 0 0 0 127 0" result="hardAlpha"/>
<feOffset dy="4"/>
<feGaussianBlur stdDeviation="2"/>
<feComposite in2="hardAlpha" operator="out"/>
<feColorMatrix type="matrix" values="0 0 0 0 0 0 0 0 0 0 0 0 0 0 0 0 0 0 0.25 0"/>
<feBlend mode="normal" in2="BackgroundImageFix" result="effect1_dropShadow_185_1238"/>
<feBlend mode="normal" in="SourceGraphic" in2="effect1_dropShadow_185_1238" result="shape"/>
</filter>
<filter id="filter3_d_185_1238" x="133.11" y="21.3892" width="19.8511" height="35.6985" filterUnits="userSpaceOnUse" color-interpolation-filters="sRGB">
<feFlood flood-opacity="0" result="BackgroundImageFix"/>
<feColorMatrix in="SourceAlpha" type="matrix" values="0 0 0 0 0 0 0 0 0 0 0 0 0 0 0 0 0 0 127 0" result="hardAlpha"/>
<feOffset dy="4"/>
<feGaussianBlur stdDeviation="2"/>
<feComposite in2="hardAlpha" operator="out"/>
<feColorMatrix type="matrix" values="0 0 0 0 0 0 0 0 0 0 0 0 0 0 0 0 0 0 0.25 0"/>
<feBlend mode="normal" in2="BackgroundImageFix" result="effect1_dropShadow_185_1238"/>
<feBlend mode="normal" in="SourceGraphic" in2="effect1_dropShadow_185_1238" result="shape"/>
</filter>
<filter id="filter4_d_185_1238" x="96.98" y="66.8574" width="14.0361" height="20.8194" filterUnits="userSpaceOnUse" color-interpolation-filters="sRGB">
<feFlood flood-opacity="0" result="BackgroundImageFix"/>
<feColorMatrix in="SourceAlpha" type="matrix" values="0 0 0 0 0 0 0 0 0 0 0 0 0 0 0 0 0 0 127 0" result="hardAlpha"/>
<feOffset dy="4"/>
<feGaussianBlur stdDeviation="2"/>
<feComposite in2="hardAlpha" operator="out"/>
<feColorMatrix type="matrix" values="0 0 0 0 0 0 0 0 0 0 0 0 0 0 0 0 0 0 0.25 0"/>
<feBlend mode="normal" in2="BackgroundImageFix" result="effect1_dropShadow_185_1238"/>
<feBlend mode="normal" in="SourceGraphic" in2="effect1_dropShadow_185_1238" result="shape"/>
</filter>
<filter id="filter5_d_185_1238" x="88.8081" y="81.7944" width="18.7646" height="15.0159" filterUnits="userSpaceOnUse" color-interpolation-filters="sRGB">
<feFlood flood-opacity="0" result="BackgroundImageFix"/>
<feColorMatrix in="SourceAlpha" type="matrix" values="0 0 0 0 0 0 0 0 0 0 0 0 0 0 0 0 0 0 127 0" result="hardAlpha"/>
<feOffset dy="4"/>
<feGaussianBlur stdDeviation="2"/>
<feComposite in2="hardAlpha" operator="out"/>
<feColorMatrix type="matrix" values="0 0 0 0 0 0 0 0 0 0 0 0 0 0 0 0 0 0 0.25 0"/>
<feBlend mode="normal" in2="BackgroundImageFix" result="effect1_dropShadow_185_1238"/>
<feBlend mode="normal" in="SourceGraphic" in2="effect1_dropShadow_185_1238" result="shape"/>
</filter>
<filter id="filter6_d_185_1238" x="63.3716" y="49.3243" width="24.0059" height="17.801" filterUnits="userSpaceOnUse" color-interpolation-filters="sRGB">
<feFlood flood-opacity="0" result="BackgroundImageFix"/>
<feColorMatrix in="SourceAlpha" type="matrix" values="0 0 0 0 0 0 0 0 0 0 0 0 0 0 0 0 0 0 127 0" result="hardAlpha"/>
<feOffset dy="4"/>
<feGaussianBlur stdDeviation="2"/>
<feComposite in2="hardAlpha" operator="out"/>
<feColorMatrix type="matrix" values="0 0 0 0 0 0 0 0 0 0 0 0 0 0 0 0 0 0 0.25 0"/>
<feBlend mode="normal" in2="BackgroundImageFix" result="effect1_dropShadow_185_1238"/>
<feBlend mode="normal" in="SourceGraphic" in2="effect1_dropShadow_185_1238" result="shape"/>
</filter>
<filter id="filter7_d_185_1238" x="47.6323" y="36.3688" width="34.7485" height="20.5285" filterUnits="userSpaceOnUse" color-interpolation-filters="sRGB">
<feFlood flood-opacity="0" result="BackgroundImageFix"/>
<feColorMatrix in="SourceAlpha" type="matrix" values="0 0 0 0 0 0 0 0 0 0 0 0 0 0 0 0 0 0 127 0" result="hardAlpha"/>
<feOffset dy="4"/>
<feGaussianBlur stdDeviation="2"/>
<feComposite in2="hardAlpha" operator="out"/>
<feColorMatrix type="matrix" values="0 0 0 0 0 0 0 0 0 0 0 0 0 0 0 0 0 0 0.25 0"/>
<feBlend mode="normal" in2="BackgroundImageFix" result="effect1_dropShadow_185_1238"/>
<feBlend mode="normal" in="SourceGraphic" in2="effect1_dropShadow_185_1238" result="shape"/>
</filter>
<filter id="filter8_d_185_1238" x="97.5332" y="108.901" width="14.4736" height="22.351" filterUnits="userSpaceOnUse" color-interpolation-filters="sRGB">
<feFlood flood-opacity="0" result="BackgroundImageFix"/>
<feColorMatrix in="SourceAlpha" type="matrix" values="0 0 0 0 0 0 0 0 0 0 0 0 0 0 0 0 0 0 127 0" result="hardAlpha"/>
<feOffset dy="4"/>
<feGaussianBlur stdDeviation="2"/>
<feComposite in2="hardAlpha" operator="out"/>
<feColorMatrix type="matrix" values="0 0 0 0 0 0 0 0 0 0 0 0 0 0 0 0 0 0 0.25 0"/>
<feBlend mode="normal" in2="BackgroundImageFix" result="effect1_dropShadow_185_1238"/>
<feBlend mode="normal" in="SourceGraphic" in2="effect1_dropShadow_185_1238" result="shape"/>
</filter>
<filter id="filter9_d_185_1238" x="64.502" y="108.133" width="31.0488" height="22.1019" filterUnits="userSpaceOnUse" color-interpolation-filters="sRGB">
<feFlood flood-opacity="0" result="BackgroundImageFix"/>
<feColorMatrix in="SourceAlpha" type="matrix" values="0 0 0 0 0 0 0 0 0 0 0 0 0 0 0 0 0 0 127 0" result="hardAlpha"/>
<feOffset dy="4"/>
<feGaussianBlur stdDeviation="2"/>
<feComposite in2="hardAlpha" operator="out"/>
<feColorMatrix type="matrix" values="0 0 0 0 0 0 0 0 0 0 0 0 0 0 0 0 0 0 0.25 0"/>
<feBlend mode="normal" in2="BackgroundImageFix" result="effect1_dropShadow_185_1238"/>
<feBlend mode="normal" in="SourceGraphic" in2="effect1_dropShadow_185_1238" result="shape"/>
</filter>
<filter id="filter10_d_185_1238" x="106.688" y="110.899" width="43.2847" height="22.536" filterUnits="userSpaceOnUse" color-interpolation-filters="sRGB">
<feFlood flood-opacity="0" result="BackgroundImageFix"/>
<feColorMatrix in="SourceAlpha" type="matrix" values="0 0 0 0 0 0 0 0 0 0 0 0 0 0 0 0 0 0 127 0" result="hardAlpha"/>
<feOffset dy="4"/>
<feGaussianBlur stdDeviation="2"/>
<feComposite in2="hardAlpha" operator="out"/>
<feColorMatrix type="matrix" values="0 0 0 0 0 0 0 0 0 0 0 0 0 0 0 0 0 0 0.25 0"/>
<feBlend mode="normal" in2="BackgroundImageFix" result="effect1_dropShadow_185_1238"/>
<feBlend mode="normal" in="SourceGraphic" in2="effect1_dropShadow_185_1238" result="shape"/>
</filter>
<filter id="filter11_d_185_1238" x="95.3755" y="124.439" width="26.4707" height="21.9973" filterUnits="userSpaceOnUse" color-interpolation-filters="sRGB">
<feFlood flood-opacity="0" result="BackgroundImageFix"/>
<feColorMatrix in="SourceAlpha" type="matrix" values="0 0 0 0 0 0 0 0 0 0 0 0 0 0 0 0 0 0 127 0" result="hardAlpha"/>
<feOffset dy="4"/>
<feGaussianBlur stdDeviation="2"/>
<feComposite in2="hardAlpha" operator="out"/>
<feColorMatrix type="matrix" values="0 0 0 0 0 0 0 0 0 0 0 0 0 0 0 0 0 0 0.25 0"/>
<feBlend mode="normal" in2="BackgroundImageFix" result="effect1_dropShadow_185_1238"/>
<feBlend mode="normal" in="SourceGraphic" in2="effect1_dropShadow_185_1238" result="shape"/>
</filter>
<filter id="filter12_d_185_1238" x="58.3164" y="80.4405" width="35.7104" height="34.1518" filterUnits="userSpaceOnUse" color-interpolation-filters="sRGB">
<feFlood flood-opacity="0" result="BackgroundImageFix"/>
<feColorMatrix in="SourceAlpha" type="matrix" values="0 0 0 0 0 0 0 0 0 0 0 0 0 0 0 0 0 0 127 0" result="hardAlpha"/>
<feOffset dy="4"/>
<feGaussianBlur stdDeviation="2"/>
<feComposite in2="hardAlpha" operator="out"/>
<feColorMatrix type="matrix" values="0 0 0 0 0 0 0 0 0 0 0 0 0 0 0 0 0 0 0.25 0"/>
<feBlend mode="normal" in2="BackgroundImageFix" result="effect1_dropShadow_185_1238"/>
<feBlend mode="normal" in="SourceGraphic" in2="effect1_dropShadow_185_1238" result="shape"/>
</filter>
<filter id="filter13_d_185_1238" x="80.0449" y="2.83591" width="22.5073" height="39.627" filterUnits="userSpaceOnUse" color-interpolation-filters="sRGB">
<feFlood flood-opacity="0" result="BackgroundImageFix"/>
<feColorMatrix in="SourceAlpha" type="matrix" values="0 0 0 0 0 0 0 0 0 0 0 0 0 0 0 0 0 0 127 0" result="hardAlpha"/>
<feOffset dy="4"/>
<feGaussianBlur stdDeviation="2"/>
<feComposite in2="hardAlpha" operator="out"/>
<feColorMatrix type="matrix" values="0 0 0 0 0 0 0 0 0 0 0 0 0 0 0 0 0 0 0.25 0"/>
<feBlend mode="normal" in2="BackgroundImageFix" result="effect1_dropShadow_185_1238"/>
<feBlend mode="normal" in="SourceGraphic" in2="effect1_dropShadow_185_1238" result="shape"/>
</filter>
<filter id="filter14_d_185_1238" x="115.533" y="87.7232" width="27.3945" height="24.1283" filterUnits="userSpaceOnUse" color-interpolation-filters="sRGB">
<feFlood flood-opacity="0" result="BackgroundImageFix"/>
<feColorMatrix in="SourceAlpha" type="matrix" values="0 0 0 0 0 0 0 0 0 0 0 0 0 0 0 0 0 0 127 0" result="hardAlpha"/>
<feOffset dy="4"/>
<feGaussianBlur stdDeviation="2"/>
<feComposite in2="hardAlpha" operator="out"/>
<feColorMatrix type="matrix" values="0 0 0 0 0 0 0 0 0 0 0 0 0 0 0 0 0 0 0.25 0"/>
<feBlend mode="normal" in2="BackgroundImageFix" result="effect1_dropShadow_185_1238"/>
<feBlend mode="normal" in="SourceGraphic" in2="effect1_dropShadow_185_1238" result="shape"/>
</filter>
<filter id="filter15_d_185_1238" x="139.189" y="83.38" width="39.1787" height="32.5693" filterUnits="userSpaceOnUse" color-interpolation-filters="sRGB">
<feFlood flood-opacity="0" result="BackgroundImageFix"/>
<feColorMatrix in="SourceAlpha" type="matrix" values="0 0 0 0 0 0 0 0 0 0 0 0 0 0 0 0 0 0 127 0" result="hardAlpha"/>
<feOffset dy="4"/>
<feGaussianBlur stdDeviation="2"/>
<feComposite in2="hardAlpha" operator="out"/>
<feColorMatrix type="matrix" values="0 0 0 0 0 0 0 0 0 0 0 0 0 0 0 0 0 0 0.25 0"/>
<feBlend mode="normal" in2="BackgroundImageFix" result="effect1_dropShadow_185_1238"/>
<feBlend mode="normal" in="SourceGraphic" in2="effect1_dropShadow_185_1238" result="shape"/>
</filter>
</defs>
</svg>
